<?xml version="1.0" encoding="UTF-8"?>
<svg id="Layer_1" data-name="Layer 1" xmlns="http://www.w3.org/2000/svg" viewBox="0 0 695.2 202.31">
  <defs>
    <style>
      .cls-1 {
        fill: #fff;
      }
    </style>
  </defs>
  <path class="cls-1" d="M90.72.1c.29-.24.9.03.9.03l41.08,33.95v43.1s-40.83-35.21-40.83-35.21l-58.02,51.92v78.64h113.58v-59.38h33.37v89.14l-180.79.02v-119.38"/>
  <g>
    <path class="cls-1" d="M273.49,25.53c8.7-1.29,17.58.26,25.32,4.42,6.36,3.5,11.49,8.88,14.68,15.4,4,8.44,4.82,18.04,2.32,27.04-2.06,7.47-6.52,14.05-12.7,18.74-13.66,10.31-34.25,10.21-47.75-.35-6.08-4.77-10.42-11.39-12.38-18.87-2.8-10.61-1.04-22.54,5.4-31.53,5.95-8.21,15.04-13.59,25.1-14.86M275.15,30.24c-6.28.69-12.23,3.21-17.1,7.23-11.89,9.71-14.38,28.28-6.55,41.25,3.31,5.51,8.26,9.84,14.17,12.38,7.36,3.1,15.54,3.64,23.24,1.52,7.33-1.98,13.68-6.59,17.84-12.94,5-8,6.41-17.73,3.88-26.82-1.9-6.95-6.18-13.02-12.1-17.12-6.87-4.6-15.17-6.55-23.37-5.49h0Z"/>
    <path class="cls-1" d="M149.46,25.62h4.48c10.83,18.71,21.65,37.42,32.48,56.13.23-.43.48-.86.72-1.29,10.62-18.25,21.15-36.56,31.76-54.84h4.3c.17,7.25.04,14.5.08,21.75-.04,16.96.11,33.92.06,50.87-1.74,0-3.48,0-5.21-.04.04-20.65.01-41.31-.09-61.96-10.21,17.4-20.19,34.93-30.39,52.33-.21,0-.63.04-.84.04-.58,0-1.14.02-1.71.02-10.15-17.45-20.29-34.91-30.43-52.35,0,20.65,0,41.3,0,61.95-1.73,0-3.46,0-5.2,0V25.62Z"/>
    <path class="cls-1" d="M335.59,98.24c0-24.21,0-48.42.01-72.64,7.27.02,14.53,0,21.8.01,5.17.03,10.4-.21,15.52.78,7.75,1.27,14.9,4.96,20.41,10.55,5.39,5.69,8.69,13.04,9.36,20.86.9,8.78-1.02,17.99-6.16,25.25-4.55,6.35-11.1,11-18.59,13.21-4.55,1.37-9.27,2.04-14.02,1.99-9.44-.01-18.89-.01-28.33,0M340.9,30.44v63.06c6.49,0,12.98,0,19.47,0,4.55.19,9.11-.2,13.56-1.18,7.14-1.58,13.47-5.66,17.87-11.5,4.92-6.68,6.54-15.35,5.53-23.47-.76-6.86-3.88-13.25-8.84-18.06-6.25-6.02-15.07-8.76-23.61-8.86-7.99,0-15.98,0-23.98,0h0Z"/>
    <path class="cls-1" d="M420.65,25.62c1.77,0,3.54,0,5.31,0,.01,14.42.01,28.83.01,43.24.17,6.7,1.72,13.9,6.55,18.85,4.46,4.62,11.13,6.24,17.37,6.16,6.21.06,12.84-1.62,17.22-6.27,4.84-5.11,6.28-12.43,6.4-19.25-.02-14.24.03-28.46-.03-42.7,1.78-.06,3.56-.06,5.34-.03-.02,13.57-.02,27.14,0,40.7.18,5.29-.61,10.57-2.33,15.58-1.89,5.44-5.64,10.03-10.59,12.96-6.17,3.57-13.56,4.32-20.54,3.66-6.85-.63-13.77-3.51-18.15-8.99-4.84-5.9-6.47-13.75-6.58-21.22,0-14.24,0-28.47,0-42.71Z"/>
    <path class="cls-1" d="M503.51,25.64c1.78-.03,3.55-.03,5.33-.01-.01,22.63-.01,45.25,0,67.87,13.91,0,27.83,0,41.74,0,0,1.59.01,3.17,0,4.76-15.69-.01-31.37-.01-47.05,0-.01-24.2-.02-48.4-.02-72.6Z"/>
    <path class="cls-1" d="M585.54,25.65c1.77-.04,3.54-.04,5.31-.03,11.14,24.21,22.27,48.41,33.4,72.62h-5.7c-3.09-6.8-6.23-13.59-9.3-20.4-14.07-.03-28.15-.1-42.22.04-2.99,6.82-6.11,13.58-9.17,20.37-1.89,0-3.78,0-5.66,0,11.05-24.22,22.28-48.37,33.33-72.59M588.13,31.45c-6.29,13.99-12.65,27.95-18.97,41.93h38.08c-6.36-13.98-12.7-27.97-19.1-41.93h-.01Z"/>
    <path class="cls-1" d="M637.45,25.63c8.48-.02,16.96,0,25.44-.01,8.1-.04,16.83,1.61,22.95,7.3,7.22,6.68,8.5,18,5.1,26.9-2.51,6.57-8.6,11.08-15.2,13.03,6,8.5,12.08,16.93,18.11,25.4-2.02-.13-4.16.27-6.09-.18-5.83-7.97-11.47-16.09-17.27-24.08-4.66.7-9.38.49-14.07.52h-13.71c-.02,7.92,0,15.84-.01,23.76h-5.24c-.01-24.21-.01-48.41-.01-72.61M642.71,30.44c0,13.13,0,26.25,0,39.37,6.89,0,13.77,0,20.67,0,4.62.13,9.22-.71,13.5-2.48,3.44-1.48,6.29-4.05,8.13-7.31,2.2-4.39,2.88-9.39,1.94-14.22-.67-4.35-3.02-8.26-6.55-10.89-4.59-3.35-10.43-4.39-16-4.49-7.23-.02-14.45-.02-21.68,0h0Z"/>
    <path class="cls-1" d="M326.15,122.23c9.71-1.51,19.66.02,28.46,4.39,6.33,3.23,11.65,8.14,15.36,14.2,8.58,14.07,7.34,33.6-3.46,46.15-6.34,7.28-15.05,12.1-24.59,13.61-9.79,1.75-19.87.4-28.85-3.86-7.4-3.59-13.45-9.46-17.28-16.74-7.39-14.17-5.46-32.92,5.43-44.8,6.55-7.08,15.36-11.66,24.92-12.95M329.14,137.23c-3.56.56-6.95,1.93-9.91,4.01-4.85,3.5-8.17,8.74-9.27,14.62-1.57,7.9.13,16.73,5.68,22.76,8.59,9.54,24.98,10.04,34.34,1.36,10.22-9.43,10.16-27.67-.1-37.05-5.51-5.07-13.46-6.93-20.75-5.71h0Z"/>
    <path class="cls-1" d="M493.43,125.39c7.61-3.52,16.24-4.14,24.51-3.45,7.47.54,14.72,2.77,21.2,6.52-1.78,4.52-3.67,8.99-5.45,13.52-6.4-3.43-13.47-5.9-20.8-5.98-4.12-.02-8.58.33-12.07,2.74-2.81,1.9-3.87,5.53-2.53,8.64,1.45,2.65,4.46,3.83,7.16,4.79,7.55,2.39,15.53,3.29,22.91,6.3,4.21,1.7,8.32,4.17,10.93,7.98,3.18,4.58,3.75,10.56,2.6,15.91-1.47,6.05-5.43,11.18-10.91,14.14-7.43,4.18-16.23,5.14-24.61,4.71-9.79-.64-19.86-2.98-27.93-8.8,2-4.46,4.04-8.92,6.02-13.39,8.2,5.62,18.02,8.4,27.95,7.92,3.48-.26,7.22-.82,9.99-3.1,2.7-2.22,3.11-6.2.92-8.92-1.94-2.15-4.78-3.14-7.46-4.01-7.13-2.12-14.59-3.14-21.52-5.92-4.58-1.82-9.04-4.58-11.66-8.88-3.07-5.08-3.37-11.5-1.72-17.1,1.85-6.13,6.73-10.99,12.47-13.62Z"/>
    <path class="cls-1" d="M639.19,130.14c6.03-5.79,14.58-7.94,22.71-8.36,10.31-.48,21.04,1.32,29.97,6.71-1.82,4.52-3.66,9.04-5.5,13.55-7.83-4.43-17-6.96-26.02-5.73-3.03.45-6.24,1.4-8.29,3.82-2.21,2.53-2.33,6.95.44,9.14,3.38,2.73,7.8,3.55,11.9,4.61,8.41,2.05,17.52,3.46,24.43,9.09,7.61,6.23,8.15,18.32,2.88,26.2-4.27,6.49-11.82,9.96-19.27,11.3-10,1.65-20.25.85-29.88-2.32-4.08-1.29-7.93-3.22-11.41-5.72,2.01-4.47,4.04-8.93,6.04-13.41,7.83,5.4,17.17,8.19,26.68,7.99,3.7-.15,7.66-.58,10.78-2.79,2.76-1.93,3.6-5.65,1.93-8.57-1.53-2.3-4.21-3.41-6.71-4.32-7.34-2.41-15.12-3.33-22.34-6.15-5.24-2-10.42-5.27-12.91-10.49-3.76-8.04-1.96-18.42,4.56-24.52Z"/>
    <path class="cls-1" d="M202.96,122.99c5.93,0,11.87,0,17.81,0,0,10.13,0,20.25,0,30.37,11.67,0,23.34,0,35.01,0,0-10.12,0-20.25,0-30.37,5.92-.02,11.85.03,17.77-.02.1,25.67.02,51.35.04,77.02h-17.81c0-10.52,0-21.04,0-31.56-11.67,0-23.33,0-35,0,.01,10.51-.02,21.01.02,31.52-5.95.09-11.89.02-17.83.04,0-25.67,0-51.33,0-76.99Z"/>
    <path class="cls-1" d="M392.78,122.99c5.93,0,11.85.02,17.78-.01.06,14.28,0,28.56.03,42.84.08,5.13.8,10.62,4.02,14.82,2.55,3.12,6.29,5.05,10.31,5.33,4.43.45,9.22.02,13.01-2.53,3.01-2.19,5.12-5.41,5.92-9.05,1.07-3.9,1.06-7.99,1.04-12.01,0-13.13,0-26.27,0-39.4,5.87,0,11.73,0,17.6,0,.03,12.29,0,24.57.02,36.86-.02,5.17.14,10.4-.85,15.52-1.34,7.52-5.12,14.81-11.36,19.39-7.51,5.6-17.29,7.03-26.43,6.42-8.42-.52-17.08-3.54-22.82-9.95-5.97-6.55-8.2-15.66-8.29-24.33,0-14.63,0-29.26,0-43.89Z"/>
    <path class="cls-1" d="M559.02,122.99h58.19c0,4.77,0,9.54.01,14.3-13.48.02-26.96,0-40.44.01,0,5.56,0,11.12,0,16.68,11.89,0,23.78,0,35.67,0,.05,4.62.01,9.25.02,13.88-11.9,0-23.79,0-35.69,0-.02,5.92.03,11.84-.02,17.77,13.96.1,27.93.01,41.9.05v14.31c-19.88,0-39.76,0-59.63-.01,0-25.66,0-51.32,0-76.99Z"/>
  </g>
</svg>